HIERARCHY
ROOT Hips
{
 OFFSET 0.000000 0.000000 0.000000
 CHANNELS 6 Xposition Yposition Zposition Yrotation Xrotation Zrotation
 JOINT Chest
 {
  OFFSET 0.000000 9.585900 0.002600
  CHANNELS 3 Yrotation Xrotation Zrotation
  JOINT Chest2
  {
   OFFSET 0.000000 9.601200 -0.005300
   CHANNELS 3 Yrotation Xrotation Zrotation
   JOINT Chest3
   {
    OFFSET 0.000000 9.561800 0.000000
    CHANNELS 3 Yrotation Xrotation Zrotation
    JOINT Chest4
    {
     OFFSET 0.000000 9.552100 0.000000
     CHANNELS 3 Yrotation Xrotation Zrotation
     JOINT Neck
     {
      OFFSET 0.000000 14.453000 0.000000
      CHANNELS 3 Yrotation Xrotation Zrotation
      JOINT Head
      {
       OFFSET 0.000000 8.936500 -0.011300
       CHANNELS 3 Yrotation Xrotation Zrotation
       End Site
       {
        OFFSET 0.000000 17.073600 -0.006000
       }
      }
     }
     JOINT RightCollar
     {
      OFFSET -2.921100 9.558500 0.000000
      CHANNELS 3 Yrotation Xrotation Zrotation
      JOINT RightShoulder
      {
       OFFSET -13.519700 0.000000 0.000000
       CHANNELS 3 Yrotation Xrotation Zrotation
       JOINT RightElbow
       {
        OFFSET 0.000000 -29.696600 0.000000
        CHANNELS 3 Yrotation Xrotation Zrotation
        JOINT RightWrist
        {
         OFFSET 0.000000 -24.004700 0.000000
         CHANNELS 3 Yrotation Xrotation Zrotation
         End Site
         {
          OFFSET 0.000000 -17.728500 0.000000
         }
        }
       }
      }
     }
     JOINT LeftCollar
     {
      OFFSET 2.921100 9.558500 0.000000
      CHANNELS 3 Yrotation Xrotation Zrotation
      JOINT LeftShoulder
      {
       OFFSET 13.519700 0.000000 0.000000
       CHANNELS 3 Yrotation Xrotation Zrotation
       JOINT LeftElbow
       {
        OFFSET 0.000000 -29.696600 0.000000
        CHANNELS 3 Yrotation Xrotation Zrotation
        JOINT LeftWrist
        {
         OFFSET 0.000000 -24.004700 0.000000
         CHANNELS 3 Yrotation Xrotation Zrotation
         End Site
         {
          OFFSET 0.000000 -17.728500 0.000000
         }
        }
       }
      }
     }
    }
   }
  }
 }
 JOINT RightHip
 {
  OFFSET -7.771700 -0.012900 -0.001300
  CHANNELS 3 Yrotation Xrotation Zrotation
  JOINT RightKnee
  {
   OFFSET 0.000000 -40.869800 0.001200
   CHANNELS 3 Yrotation Xrotation Zrotation
   JOINT RightAnkle
   {
    OFFSET 0.000000 -39.717900 0.002100
    CHANNELS 3 Yrotation Xrotation Zrotation
    JOINT RightToe
    {
     OFFSET 0.000000 -4.965400 11.033500
     CHANNELS 3 Yrotation Xrotation Zrotation
     End Site
     {
      OFFSET 0.000000 -1.423100 5.872300
     }
    }
   }
  }
 }
 JOINT LeftHip
 {
  OFFSET 7.771700 -0.012900 -0.001300
  CHANNELS 3 Yrotation Xrotation Zrotation
  JOINT LeftKnee
  {
   OFFSET 0.000000 -40.869800 0.001200
   CHANNELS 3 Yrotation Xrotation Zrotation
   JOINT LeftAnkle
   {
    OFFSET 0.000000 -39.717900 0.002100
    CHANNELS 3 Yrotation Xrotation Zrotation
    JOINT LeftToe
    {
     OFFSET 0.000000 -4.965400 11.033500
     CHANNELS 3 Yrotation Xrotation Zrotation
     End Site
     {
      OFFSET 0.000000 -1.423100 5.872300
     }
    }
   }
  }
 }
}
MOTION
Frames: 15
Frame Time: 0.008333
-261.278834 60.248544 -80.616016 158.759371 -28.465512 3.385667 3.518628 17.396662 1.634306 0.341729 1.895181 0.139132 0.570784 3.151027 0.240448 2.939654 15.214630 1.475298 1.034676 18.138530 -1.954055 1.539809 -6.597281 -2.305249 3.382825 7.424474 -3.912658 2.716100 -20.198551 -6.894021 -48.040568 -77.114164 59.182807 -1.981605 0.457936 -41.488453 -7.039425 2.845537 -5.054969 17.155426 -11.204394 -1.712697 10.239358 -82.333164 -22.597397 -6.431042 7.579785 10.000704 0.276491 -41.595762 5.355720 -28.272824 68.149151 -28.040788 -1.286332 -3.714442 -1.285180 0.090374 -0.177972 0.040045 13.616543 -40.588785 -1.465552 25.247622 61.782125 24.673747 -15.464696 -14.521172 1.906417 -0.020778 0.207598 -0.047651
-261.276441 60.249712 -80.617022 158.755625 -28.471884 3.379135 3.523799 17.398200 1.642338 0.342117 1.895470 0.138882 0.571124 3.148153 0.237013 2.942965 15.219826 1.474340 1.038680 18.135528 -1.955821 1.536551 -6.593769 -2.297018 3.378652 7.419812 -3.923319 2.716658 -20.196514 -6.878379 -48.030890 -77.110871 59.174450 -1.974847 0.462347 -41.493488 -7.040970 2.846010 -5.048765 17.149812 -11.206152 -1.715965 10.213290 -82.331653 -22.568930 -6.432180 7.581082 9.994933 0.270015 -41.584446 5.372206 -28.272503 68.142328 -28.039141 -1.288925 -3.714159 -1.287706 0.086097 -0.177195 0.038912 13.610032 -40.584998 -1.449526 25.246669 61.788756 24.671703 -15.468523 -14.533450 1.916797 -0.021698 0.198072 -0.047871
-261.273807 60.250178 -80.616785 158.750515 -28.472429 3.369589 3.531741 17.396097 1.654468 0.341564 1.894882 0.138031 0.571954 3.148560 0.236315 2.948245 15.217067 1.470178 1.038879 18.138048 -1.950450 1.536988 -6.592867 -2.295477 3.375391 7.420958 -3.923857 2.716395 -20.196479 -6.872698 -47.996103 -77.105115 59.149362 -1.974636 0.460950 -41.491462 -7.039215 2.848651 -5.043120 17.144056 -11.206670 -1.721969 10.188763 -82.326844 -22.552239 -6.437116 7.577075 10.001850 0.263272 -41.582686 5.389688 -28.252213 68.141632 -28.020220 -1.288635 -3.706749 -1.284554 0.082926 -0.180794 0.034633 13.583295 -40.588753 -1.418898 25.281575 61.787340 24.684120 -15.447777 -14.527626 1.928901 -0.005635 0.179918 -0.047958
-261.272720 60.250617 -80.616947 158.744601 -28.474232 3.369401 3.536121 17.396467 1.656029 0.342432 1.895747 0.138539 0.572895 3.148793 0.235415 2.952702 15.218048 1.468549 1.036910 18.136617 -1.946821 1.551741 -6.598037 -2.301942 3.373312 7.416195 -3.926346 2.728195 -20.205539 -6.877372 -47.960190 -77.093947 59.102977 -1.974293 0.459092 -41.480638 -7.038195 2.843378 -5.035870 17.138753 -11.201762 -1.725417 10.158937 -82.324487 -22.522764 -6.435988 7.576973 10.005190 0.267716 -41.579852 5.394435 -28.241778 68.140464 -28.007706 -1.291598 -3.703609 -1.284798 0.080360 -0.181131 0.033354 13.581919 -40.587396 -1.411897 25.295600 61.782749 24.692234 -15.456575 -14.504732 1.932121 -0.006638 0.153144 -0.041365
-261.274310 60.250768 -80.617091 158.741374 -28.472669 3.381844 3.536738 17.394939 1.643353 0.342694 1.896095 0.138537 0.572041 3.149246 0.236594 2.959150 15.218677 1.466563 1.037625 18.135357 -1.944018 1.560407 -6.599336 -2.306271 3.368745 7.411877 -3.928003 2.735389 -20.206432 -6.880292 -47.941494 -77.092548 59.084376 -1.973454 0.458286 -41.472755 -7.043014 2.839669 -5.030365 17.139053 -11.199856 -1.726505 10.173387 -82.316763 -22.540148 -6.440002 7.579624 10.008263 0.283678 -41.581871 5.377976 -28.237160 68.139057 -27.998593 -1.292990 -3.700719 -1.287588 0.081634 -0.180531 0.034005 13.579426 -40.587330 -1.412085 25.310275 61.778076 24.693563 -15.524759 -14.462136 1.923278 -0.008510 0.114837 -0.022724
-261.278944 60.249437 -80.614869 158.751608 -28.452619 3.398694 3.527440 17.376952 1.619379 0.349237 1.896146 0.136946 0.567598 3.149029 0.237815 2.965364 15.219058 1.464428 1.039072 18.133504 -1.940930 1.561125 -6.600614 -2.306472 3.360907 7.403820 -3.928092 2.736710 -20.203307 -6.881189 -47.913648 -77.095494 59.076754 -1.977591 0.454691 -41.481865 -7.055986 2.839882 -5.020289 17.146924 -11.203450 -1.728581 10.198688 -82.309179 -22.575828 -6.450314 7.584389 10.012862 0.300215 -41.604539 5.339193 -28.227013 68.139543 -27.979194 -1.288392 -3.698221 -1.291744 0.082798 -0.178799 0.034465 13.563344 -40.590723 -1.431396 25.394317 61.719504 24.740343 -15.585770 -14.399299 1.911423 -0.025441 0.082795 -0.013157
-261.279109 60.249757 -80.614115 158.746162 -28.454243 3.400423 3.548870 17.383925 1.620886 0.335776 1.890575 0.140871 0.579189 3.152201 0.233527 2.970587 15.220325 1.463977 1.047179 18.130586 -1.945152 1.549384 -6.604855 -2.293971 3.351536 7.391403 -3.927544 2.733856 -20.198792 -6.880724 -47.915483 -77.095409 59.083873 -1.972863 0.453413 -41.477631 -7.071498 2.837055 -5.008423 17.154763 -11.206587 -1.728075 10.214365 -82.306350 -22.599969 -6.454329 7.587819 10.006310 0.306178 -41.603809 5.337818 -28.227724 68.136640 -27.975030 -1.282114 -3.691204 -1.295309 0.082005 -0.182007 0.035134 13.555661 -40.583292 -1.423396 25.419113 61.698495 24.749706 -15.572945 -14.346172 1.900147 -0.024151 0.076681 -0.005688
-261.281161 60.249937 -80.612918 158.746396 -28.451313 3.408481 3.553906 17.386517 1.612713 0.337675 1.891042 0.138775 0.575520 3.149264 0.235338 2.979531 15.226156 1.463505 1.046056 18.125119 -1.944505 1.544292 -6.609736 -2.289616 3.346183 7.375748 -3.929894 2.732382 -20.194866 -6.883716 -47.914713 -77.097404 59.087543 -1.971520 0.450933 -41.473184 -7.084018 2.829443 -4.999770 17.159535 -11.207268 -1.725673 10.257469 -82.305492 -22.654643 -6.458447 7.590464 10.009954 0.314387 -41.607572 5.326220 -28.229311 68.135283 -27.975061 -1.280320 -3.689305 -1.295984 0.079989 -0.182022 0.035072 13.554317 -40.579762 -1.427786 25.439784 61.678155 24.756457 -15.588698 -14.286048 1.885717 -0.018636 0.060068 0.006808
-261.283475 60.249101 -80.609243 158.766280 -28.434310 3.402938 3.541304 17.374621 1.607797 0.341783 1.890712 0.139340 0.579205 3.154565 0.234150 2.973294 15.220516 1.464921 1.048389 18.126028 -1.946298 1.541540 -6.617852 -2.287558 3.346383 7.363462 -3.935104 2.732506 -20.191541 -6.888419 -47.928615 -77.091831 59.099543 -1.966225 0.448709 -41.461291 -7.082237 2.824598 -4.995690 17.152315 -11.205105 -1.720413 10.286963 -82.303354 -22.692291 -6.460747 7.592864 10.016688 0.301731 -41.625649 5.320418 -28.232427 68.131660 -27.973530 -1.277543 -3.685097 -1.302694 0.082729 -0.182948 0.037509 13.541284 -40.593645 -1.437081 25.473850 61.638212 24.780053 -15.614934 -14.213880 1.868012 -0.004697 0.052503 0.018005
-261.285165 60.249791 -80.607771 158.766926 -28.432044 3.407727 3.542701 17.381265 1.602810 0.346774 1.900382 0.137832 0.573819 3.140702 0.235140 2.975464 15.223037 1.465099 1.050226 18.128029 -1.947115 1.543049 -6.630695 -2.291366 3.346027 7.345518 -3.947259 2.730249 -20.184847 -6.882662 -47.930506 -77.088142 59.101559 -1.967475 0.448009 -41.457730 -7.082679 2.816335 -4.993207 17.146461 -11.202780 -1.712461 10.321370 -82.301658 -22.727195 -6.460956 7.594276 10.019427 0.304607 -41.627563 5.314301 -28.223740 68.127191 -27.964104 -1.276868 -3.674744 -1.305762 0.086383 -0.187267 0.038212 13.544089 -40.592808 -1.442903 25.475409 61.627672 24.778898 -15.639075 -14.173235 1.859865 -0.008284 0.058163 0.020137
-261.288458 60.250790 -80.606975 158.770320 -28.429473 3.421780 3.536124 17.387738 1.586630 0.347404 1.904618 0.137880 0.578583 3.142707 0.234835 2.978674 15.230229 1.464538 1.045942 18.115797 -1.945646 1.541166 -6.642129 -2.291950 3.339034 7.310494 -3.963564 2.725063 -20.174130 -6.866215 -47.909142 -77.092705 59.088079 -1.973459 0.447497 -41.459577 -7.087827 2.793152 -4.986334 17.139224 -11.202385 -1.705648 10.362083 -82.298271 -22.765095 -6.461174 7.597094 10.022952 0.322819 -41.633405 5.288553 -28.229988 68.129068 -27.964825 -1.281480 -3.669530 -1.306910 0.089916 -0.190488 0.039278 13.560977 -40.587771 -1.465860 25.483070 61.615680 24.786331 -15.689205 -14.154099 1.860179 -0.018182 0.078366 0.015982
-261.288885 60.252393 -80.606536 158.765623 -28.433014 3.424995 3.539779 17.394609 1.585865 0.346803 1.911832 0.138028 0.580614 3.150092 0.235414 2.982396 15.237039 1.466307 1.041713 18.096030 -1.948407 1.542797 -6.655917 -2.298329 3.334069 7.275942 -3.980787 2.736454 -20.169353 -6.867701 -47.899522 -77.083434 59.083889 -1.970952 0.442679 -41.456047 -7.085922 2.766950 -4.984275 17.128951 -11.202655 -1.700285 10.378750 -82.294327 -22.779044 -6.459899 7.601109 10.032611 0.327661 -41.629657 5.287170 -28.229374 68.129708 -27.962967 -1.281553 -3.667732 -1.307683 0.082368 -0.191123 0.038267 13.582378 -40.576359 -1.480590 25.480655 61.608796 24.793940 -15.677574 -14.169496 1.868930 -0.010929 0.114888 0.007094
-261.287874 60.254168 -80.606324 158.764262 -28.438290 3.419969 3.543079 17.408239 1.591890 0.342753 1.910596 0.139852 0.581216 3.162357 0.236441 2.984463 15.242808 1.468481 1.040819 18.075004 -1.955232 1.538388 -6.665500 -2.301028 3.334166 7.245826 -3.995300 2.765319 -20.179097 -6.889548 -47.864697 -77.068557 59.052144 -1.983042 0.444041 -41.458752 -7.082632 2.735725 -4.974380 17.127507 -11.194597 -1.709400 10.236141 -82.279935 -22.630308 -6.453047 7.591883 10.035020 0.320720 -41.623221 5.295534 -28.222522 68.129990 -27.956932 -1.278356 -3.663403 -1.305797 0.077482 -0.193813 0.035017 13.639476 -40.569705 -1.515214 25.440139 61.613273 24.807192 -15.673304 -14.199890 1.868394 -0.003252 0.149289 0.003445
-261.285974 60.256048 -80.606555 158.758376 -28.444594 3.414250 3.546363 17.418921 1.599912 0.344123 1.909499 0.141189 0.576573 3.169662 0.238782 2.989132 15.238095 1.467003 1.038363 18.072921 -1.957127 1.533254 -6.675992 -2.306186 3.336067 7.235039 -4.006396 2.767594 -20.176059 -6.886370 -47.859404 -77.066255 59.046421 -1.978023 0.447424 -41.447872 -7.081142 2.729634 -4.975410 17.134206 -11.196807 -1.702794 10.245345 -82.272888 -22.644371 -6.457837 7.595274 10.037134 0.317323 -41.613945 5.305225 -28.209170 68.129041 -27.942681 -1.274869 -3.660614 -1.303952 0.068757 -0.194317 0.031264 13.666591 -40.566890 -1.519986 25.403230 61.629942 24.810051 -15.697454 -14.238719 1.855219 0.000490 0.177540 0.006533
-261.283911 60.258504 -80.608477 158.736305 -28.457671 3.420082 3.553755 17.443457 1.605286 0.352995 1.903130 0.140028 0.574695 3.172028 0.237765 2.986220 15.246729 1.474545 1.035352 18.062374 -1.966129 1.529231 -6.687670 -2.311666 3.346066 7.195453 -4.048355 2.778709 -20.163637 -6.875476 -47.835144 -77.047965 59.020466 -1.969438 0.444988 -41.447611 -7.070780 2.710622 -4.971574 17.149000 -11.191151 -1.686353 10.405291 -82.262999 -22.819550 -6.467113 7.606724 10.037132 0.322310 -41.598545 5.312933 -28.201669 68.129726 -27.937906 -1.264142 -3.659343 -1.301031 0.059604 -0.195172 0.025493 13.692644 -40.555652 -1.516943 25.368866 61.658552 24.807902 -15.712572 -14.289152 1.839437 -0.000809 0.198893 0.009605
